<svg xmlns="http://www.w3.org/2000/svg" version="1.1" xmlns:xlink="http://www.w3.org/1999/xlink" xmlns:svgjs="http://svgjs.dev/svgjs" width="1000" height="563" viewBox="0 0 1000 563"><g transform="matrix(1,0,0,1,-0.6060606060606233,0.6015264642584839)"><svg viewBox="0 0 396 223" data-background-color="#ffffff" preserveAspectRatio="xMidYMid meet" height="563" width="1000" xmlns="http://www.w3.org/2000/svg" xmlns:xlink="http://www.w3.org/1999/xlink"><g id="tight-bounds" transform="matrix(1,0,0,1,0.2400000000000091,-0.23826003824092368)"><svg viewBox="0 0 395.52 223.47652007648185" height="223.47652007648185" width="395.52"><g><svg viewBox="0 0 395.52 223.47652007648185" height="223.47652007648185" width="395.52"><g><svg viewBox="0 0 395.52 223.47652007648185" height="223.47652007648185" width="395.52"><g id="textblocktransform"><svg viewBox="0 0 395.52 223.47652007648185" height="223.47652007648185" width="395.52" id="textblock"><g><svg viewBox="0 0 395.52 223.47652007648185" height="223.47652007648185" width="395.52"><rect width="395.52" height="223.47652007648185" x="0" y="0" opacity="1" fill="#0080ff" data-fill-palette-color="tertiary"></rect><g transform="matrix(1,0,0,1,23.607599999999998,23.607600000000012)"><svg width="348.3048" viewBox="3.52 -37.7 76.60000000000001 38.77" height="176.26132007648184" data-palette-color="#ffffff"><path d="M38.72-24.56L38.72-24.56Q38.72-20.56 36.28-18.26 33.84-15.97 29.83-15.77L29.83-15.77Q34.67-7.71 38.28 0.73L38.28 0.73 24.02 1.07Q23.63-2.88 22.85-6.2 22.07-9.52 20.65-13.18L20.65-13.18Q19.04-13.09 17.46-12.94 15.87-12.79 14.31-12.7L14.31-12.7 14.55-1.61Q11.77-1.46 8.98-1.46L8.98-1.46Q7.57-1.46 6.23-1.51 4.88-1.56 3.52-1.71L3.52-1.71Q3.86-6.2 4.15-10.67 4.44-15.14 4.49-19.58L4.49-19.58Q4.64-27.49 4.93-35.4L4.93-35.4Q9.52-35.64 14.09-35.94 18.65-36.23 23.24-36.23L23.24-36.23Q24.41-36.23 25.78-36.18 27.15-36.13 28.54-35.91 29.93-35.69 31.23-35.3 32.52-34.91 33.54-34.28L33.54-34.28Q36.04-32.71 37.38-30.1 38.72-27.49 38.72-24.56ZM27.39-25.34L27.39-25.34Q27.39-25.73 27.37-26.42 27.34-27.1 27.25-27.81 27.15-28.52 26.95-29.13 26.76-29.74 26.42-30.03L26.42-30.03Q26.17-30.22 25.59-30.32 25-30.42 24.34-30.49 23.68-30.57 23.07-30.59 22.46-30.62 22.22-30.62L22.22-30.62Q20.26-30.62 18.38-30.42 16.5-30.22 14.65-29.93L14.65-29.93 15.97-20.46Q17.04-20.21 18.21-20.12 19.38-20.02 20.51-20.02L20.51-20.02Q21-20.02 21.95-20.07 22.9-20.12 23.9-20.26 24.9-20.41 25.76-20.68 26.61-20.95 26.95-21.39L26.95-21.39Q27.1-21.58 27.2-22.14 27.29-22.71 27.32-23.32 27.34-23.93 27.37-24.51 27.39-25.1 27.39-25.34ZM80.12-24.17L80.12-24.17Q80.12-23.34 80.03-22.61 79.93-21.88 79.69-21.09L79.69-21.09Q79.39-20.26 78.56-19.51 77.73-18.75 76.71-18.09 75.68-17.43 74.61-16.97 73.53-16.5 72.8-16.26L72.8-16.26Q73.04-16.21 73.78-16.09 74.51-15.97 75.31-15.77 76.12-15.58 76.8-15.31 77.49-15.04 77.68-14.75L77.68-14.75Q78.02-14.16 78.24-13.31 78.46-12.45 78.56-11.5 78.66-10.55 78.71-9.64 78.76-8.74 78.76-8.06L78.76-8.06Q78.76-7.81 78.76-7.54 78.76-7.28 78.71-7.03L78.71-7.03Q78.61-6.54 78.02-5.74 77.44-4.93 76.66-4.1 75.88-3.27 75.12-2.56 74.36-1.86 73.97-1.56L73.97-1.56Q73.44-1.17 72.92-0.88 72.41-0.59 71.82-0.34L71.82-0.34Q71.38-0.15 69.94-0.05 68.5 0.05 66.89 0.12 65.28 0.2 63.86 0.22 62.45 0.24 61.96 0.24L61.96 0.24Q58.05 0.24 54.25 0.12 50.44 0 46.53-0.2L46.53-0.2Q46.63-3.66 46.68-7.1 46.73-10.55 46.73-14.06L46.73-14.06Q46.73-18.02 46.48-21.92 46.24-25.83 45.94-29.74L45.94-29.74 42.19-30.08Q41.94-32.03 41.82-33.91 41.7-35.79 41.5-37.7L41.5-37.7Q45.51-37.6 49.51-37.5 53.51-37.4 57.52-37.3L57.52-37.3Q59.23-37.26 61.86-36.99 64.5-36.72 67.26-36.28 70.02-35.84 72.48-35.21 74.95-34.57 76.36-33.79L76.36-33.79Q77.44-33.2 78.15-32.03 78.85-30.86 79.29-29.47 79.73-28.08 79.93-26.66 80.12-25.24 80.12-24.17ZM67.14-24.37L67.14-24.37Q67.14-24.85 67.09-25.61 67.04-26.37 66.89-27.15 66.75-27.93 66.5-28.61 66.26-29.3 65.92-29.74L65.92-29.74Q65.82-29.88 65.38-29.98 64.94-30.08 64.43-30.13 63.91-30.18 63.43-30.18 62.94-30.18 62.79-30.18L62.79-30.18Q60.35-30.18 57.96-29.91 55.56-29.64 53.17-29.25L53.17-29.25Q53.46-26.86 53.71-24.46 53.95-22.07 54.29-19.68L54.29-19.68Q54.88-19.68 56.59-19.78 58.3-19.87 60.23-20.02 62.16-20.17 63.82-20.39 65.48-20.61 65.96-20.9L65.96-20.9Q66.79-21.44 66.97-22.46 67.14-23.49 67.14-24.37ZM66.75-10.6L66.75-10.6Q66.75-11.33 66.55-12.08 66.35-12.84 65.77-13.33L65.77-13.33Q65.62-13.48 65.09-13.57 64.55-13.67 63.96-13.7 63.38-13.72 62.84-13.75 62.3-13.77 62.11-13.77L62.11-13.77Q60.01-13.77 57.96-13.55 55.91-13.33 53.85-13.09L53.85-13.09 54.64-6.88Q54.88-6.88 55.78-6.93 56.69-6.98 57.88-7.06 59.08-7.13 60.42-7.23 61.77-7.32 62.94-7.47 64.11-7.62 64.94-7.79 65.77-7.96 65.96-8.2L65.96-8.2Q66.4-8.74 66.57-9.33 66.75-9.91 66.75-10.6Z" opacity="1" transform="matrix(1,0,0,1,0,0)" fill="#ffffff" class="wordmark-text-0" data-fill-palette-color="quaternary" id="text-0"></path></svg></g></svg></g></svg></g></svg></g></svg></g><defs></defs></svg><rect width="395.52" height="223.47652007648185" fill="none" stroke="none" visibility="hidden"></rect></g></svg></g></svg>