<svg xmlns="http://www.w3.org/2000/svg" version="1.1" xmlns:xlink="http://www.w3.org/1999/xlink" xmlns:svgjs="http://svgjs.dev/svgjs" width="1000" height="1125" viewBox="0 0 1000 1125"><g transform="matrix(1,0,0,1,1.7053025658242404e-13,0)"><svg viewBox="0 0 320 360" data-background-color="#ffffff" preserveAspectRatio="xMidYMid meet" height="1125" width="1000" xmlns="http://www.w3.org/2000/svg" xmlns:xlink="http://www.w3.org/1999/xlink"><g id="tight-bounds" transform="matrix(1,0,0,1,0,0)"><svg viewBox="0 0 320 360" height="360" width="320"><g><svg></svg></g><g><svg viewBox="0 0 320 360" height="360" width="320"><g><path d="M20.961 227.22l3.726 4.658-1.863-6.056c-0.466-2.795-3.726 0.466-1.863 1.398M25.153 224.425c1.397 2.329 2.795 4.658 2.795 6.987 0 3.261 2.795 4.658 5.123 5.589-3.261-3.726-5.124-13.974-7.918-12.576M204.017 26.929c7.918 0 15.371-0.932 23.756 0.931 20.495 5.124 37.729 15.371 49.374 29.811l32.606 52.169c1.397 13.042 4.192 27.482 3.726 43.319 3.261 0 2.795-4.658 6.521-5.59-3.726 9.316-5.59 20.961-6.521 34.469-2.329-7.453 0-18.632 0.466-24.687-3.261 5.124-5.124 1.397-5.124-0.932 0.466-3.726-1.397-3.261-2.795-4.658-5.124-4.658-8.384-9.782-12.11-17.7 2.329-6.055 2.795-14.905-4.658-19.563-2.329-1.397-5.124-3.726-6.521-7.453-1.863-5.124-5.124-11.179-4.193-19.097 0.466-2.329-6.987 5.124-11.179 1.863-18.166-12.576-36.332-27.016-58.224-39.127-11.645 0-20.029-4.192-24.221-9.316-3.726-4.658-0.932-10.713 4.658-11.179 3.261 0 6.987-0.932 9.782 0.932 0.466-1.863 2.329-4.192 4.657-4.192M157.904 16.215l0.932 0.466c4.658 0.932 6.987 7.453 12.11 5.124 0 3.261 0.466 6.521-0.466 8.85-1.397 3.726-5.59 3.726-8.85 3.726-31.208-1.863-49.374 11.179-68.471 22.358-5.124 3.261-10.713 5.59-14.906 9.782-20.029 18.632-41.921 35.866-47.045 70.335l-4.192 38.195c-0.466 4.192-5.124 8.384-4.192 13.508l3.26 22.824c-3.261-3.261-5.124 0.932-4.192 2.795 0.466 1.397 2.329 6.055 5.124 1.863 3.726 6.987 7.453 20.495 12.576 26.55 15.837 18.632 36.332 35.4 53.101 52.169 4.192-0.932 7.453-0.932 8.384-3.727 1.397 2.795-1.397 5.59-3.726 6.056 7.453 4.658 15.837 8.85 27.016 9.781 14.44 0.932 27.948 3.261 40.524 6.522 6.521-1.863 13.042-2.795 20.029-3.261 2.329 0 3.726-3.726 6.521-4.658l0.466-4.658c2.795 4.192 2.329-1.397 0.466-4.192 3.261 2.795 4.192 5.124 5.589 6.987 0-1.397 3.726-6.521 3.727-0.466l0.931-6.055c1.397-0.932 1.863 5.124 3.261 0.931 1.397-4.192 4.192-0.932 6.987-2.329-0.932 1.863-0.466 5.59 2.794 3.261l3.727-3.261c2.329 5.59 6.055 3.261 7.918 2.329 20.495-13.042 40.99-28.413 60.553-43.784l-0.466 6.055 2.329-7.453c2.329 2.329 4.192 0.466 5.124-0.931 2.795-4.658 6.521-9.316 12.577-13.508-7.453 20.029-16.303 35.866-27.482 48.908l-4.658 5.59c0 3.261-0.932 7.453-4.658 7.918-1.863 0.466-5.59-0.932-8.384 1.863-1.397 1.863 3.261 5.59-0.466 2.795-3.261-2.329-6.521 0-10.248 0.932-2.795 0.932 1.863 3.726 2.795 5.589 0.932 1.863 1.863 3.726 1.398 6.056l-5.124-5.59c-6.055 3.261-9.782 9.316-14.906 13.974-2.329 1.863-1.397 5.124-1.397 7.918-3.261 0-6.987-0.932-8.85 0.932-1.397 1.863-0.932 4.658-0.932 7.453-4.658-0.466-5.124-7.453-9.315-6.056-4.192 0.932-8.85 1.397-12.577 3.727 2.795 5.59-4.658 2.329-3.726 3.26-6.987-4.192-13.042-7.453-20.495-4.658-15.837-5.124-35.4-2.795-49.84-0.931 0-2.329 0.466-4.658-0.466-5.124-0.932 2.329-3.726 1.397-3.26 1.397-8.85-6.055-17.7-9.782-27.016-14.905-8.384 0.932-16.303-3.261-18.632-5.59-6.521-6.055-13.974-2.795-20.029-4.192-13.042-3.261-17.7-16.769-19.098-26.084-0.932-4.658-4.658-6.521-6.055-6.056-6.055-19.563-15.371-37.263-22.824-55.429-1.863-4.658-1.397-9.316-1.397-14.44 2.329 0.932 4.658 0.466 4.192-2.794-2.329-15.371-7.918-27.016-13.974-38.195 3.261-15.837 3.726-34.469 11.179-48.443 6.521-12.576 18.632-19.098 27.016-29.811 2.795-3.726 2.795-8.85 5.59-12.11 9.316-9.316 18.632-19.098 28.879-27.482 4.658-3.726 10.247 0 17.234-1.397 2.329-8.384 11.645-15.837 20.495-13.508 3.726 0.932 11.179-8.85 13.508-9.782 3.726-1.397 1.863 3.726 1.863 6.987 8.85-6.987 20.961-10.713 32.14-14.906" fill="#ed1703" fill-rule="nonzero" stroke="none" stroke-width="1" stroke-linecap="butt" stroke-linejoin="miter" stroke-miterlimit="10" stroke-dasharray="" stroke-dashoffset="0" font-family="none" font-weight="none" font-size="none" text-anchor="none" style="mix-blend-mode: normal" data-fill-palette-color="tertiary"></path></g><g transform="matrix(1,0,0,1,66.08641379310345,90)"><svg viewBox="0 0 187.8271724137931 180" height="180" width="187.8271724137931"><g><svg viewBox="0 0 187.8271724137931 180" height="180" width="187.8271724137931"><g><svg viewBox="0 0 187.8271724137931 180" height="180" width="187.8271724137931"><g id="textblocktransform"><svg viewBox="0 0 187.8271724137931 180" height="180" width="187.8271724137931" id="textblock"><g><svg viewBox="0 0 187.8271724137931 180" height="180" width="187.8271724137931"><path d="M187.387 38.607C186.504 19.923 183.988 14.728 183.988 14.728 176.261-4.516 166.619-0.368 157.957 2.397 142.663 2.509 127.431 6.62 112.172 8.824 80.145 9.161 47.844 3.63 15.976 17.27 12.983 21.455-3.106 18.092 0.532 40.998 1.486 50.527 4.965 61.102 4.859 69.846 5.336 71.378 5.998 67.866 6.281 70.07 7.27 76.012 8.886 73.209 10.21 76.722 8.365 86.101 9.689 93.911 10.952 102.095 8.727 104.225 5.875 103.216 4.594 110.278 4.462 115.398 3.747 114.426 2.961 114.202 2.387 114.052 1.23 114.613 1.424 116.22 2.087 121.713-0.757 124.889 1.027 130.27-0.2 136.099 1.875 141.144 1.592 147.459 1.557 148.73 1.751 149.813 2.06 150.112 3.429 151.719 1.433 154.858 1.645 158.258 15.685 181.501 30.917 165.433 45.301 176.12 49.037 168.647 46.229 178.773 47.721 177.204 48.886 175.373 49.734 182.959 51.05 178.661 51.253 177.428 50.944 174.514 51.668 175.074 52.048 175.373 52.383 175.298 52.436 173.579 52.516 171.001 51.818 172.608 51.633 171.263 53.637 164.462 53.143 180.642 55.023 179.969 54.935 177.989 54.388 175.149 55.509 175.522 56.622 172.682 56.657 170.328 57.646 176.718 57.681 178.101 57.858 179.072 58.14 179.745 61.231 172.795 64.304 182.211 67.545 179.072 69.531 175.635 71.439 180.941 73.452 179.633 74.158 178.587 74.874 176.718 75.553 179.857 83.88 180.53 92.755 177.727 100.649 179.969 121.744 175.784 144.287 181.688 166.531 176.158 171.776 174.028 177.224 171.001 182.337 168.572 182.337 168.572 186.478 161.921 186.478 132.026S187.361 105.869 187.493 82.065C187.626 58.262 188.244 57.29 187.361 38.607Z" opacity="1" fill="#ed1703" data-fill-palette-color="tertiary"></path><g transform="matrix(1,0,0,1,27.072000000000003,19.1)"><svg width="133.6831724137931" viewBox="0.98 -34.79 33.370000000000005 35.4" height="141.8" data-palette-color="#ffffff"><path d="M16.28 0L1.27 0Q1.07 0 1.07-0.49L1.07-0.49 1.07-0.78Q1.07-0.98 1.27-0.98L1.27-0.98Q1.42-0.98 1.73-1.03 2.05-1.07 2.39-1.12 2.73-1.17 3.03-1.23 3.32-1.29 3.44-1.32L3.44-1.32Q5.93-1.88 5.93-4.15L5.93-4.15 5.93-29.93Q5.93-32.03 4.25-32.91L4.25-32.91Q3.25-33.45 2.1-33.45L2.1-33.45 1.17-33.45Q0.98-33.45 0.98-33.64L0.98-33.64 0.98-34.23Q0.98-34.42 1.27-34.42L1.27-34.42 14.67-34.79 17.14-34.79Q21.46-34.5 24.38-31.65 27.29-28.81 27.29-24.65 27.29-20.48 23.83-18.16L23.83-18.16Q22.75-17.46 21.51-16.89L21.51-16.89 28.91-4.81Q30.83-1.64 34.08-0.34L34.08-0.34Q34.35-0.27 34.35 0L34.35 0Q34.35 0.61 33.54 0.61L33.54 0.61Q28.05 0.61 24.8-3.56L24.8-3.56Q24.1-4.49 23.39-5.64L23.39-5.64 17.07-15.55 11.25-15.82 11.06-15.82Q10.69-15.82 10.69-15.48L10.69-15.48 10.69-4.22Q10.69-2.88 11.45-2.22 12.21-1.56 14.06-1.32L14.06-1.32Q14.55-1.25 15.26-1.11 15.97-0.98 16.22-0.98 16.48-0.98 16.48-0.78L16.48-0.78 16.48-0.2Q16.48 0 16.28 0L16.28 0ZM12.67-33.51Q12.38-33.5 12.05-33.48 11.72-33.47 11.21-33.46 10.69-33.45 10.69-33.06L10.69-33.06 10.69-18.26 10.74-17.53Q10.82-17.02 11.21-16.99L11.21-16.99 13.7-16.85Q20.56-16.85 21.97-21.73L21.97-21.73Q22.44-23.27 22.44-25.24L22.44-25.24Q22.44-29.1 20.03-31.32 17.63-33.54 13.89-33.54L13.89-33.54Q13.55-33.54 13.26-33.53 12.96-33.52 12.67-33.51Z" opacity="1" transform="matrix(1,0,0,1,0,0)" fill="#ffffff" class="wordmark-text-0" data-fill-palette-color="quaternary" id="text-0"></path></svg></g></svg></g></svg></g></svg></g><g></g></svg></g></svg></g></svg></g><defs></defs></svg><rect width="320" height="360" fill="none" stroke="none" visibility="hidden"></rect></g></svg></g></svg>